<?xml version="1.0" encoding="UTF-8"?>
<svg id="a" data-name="Слой 1" xmlns="http://www.w3.org/2000/svg" xmlns:xlink="http://www.w3.org/1999/xlink" viewBox="0 0 16 16">
  <defs>
    <style>
      .d {
        fill: #fff;
      }

      .e {
        fill: #9bc230;
      }

      .f {
        fill: #2377b1;
      }

      .g {
        fill: #8b298f;
      }

      .h {
        fill: #e29f2f;
      }

      .i {
        opacity: .3;
      }

      .j {
        fill: #102444;
      }

      .k {
        fill: #37ac55;
      }

      .l {
        fill: url(#b);
      }

      .m {
        fill: none;
      }

      .n {
        fill: #323792;
      }

      .o {
        fill: #f5ae33;
      }

      .p {
        mask: url(#c);
      }

      .q {
        fill: #e44031;
      }
    </style>
    <linearGradient id="b" data-name="Безымянный градиент" x1="4.42" y1="9.01" x2="11.35" y2="9.01" gradientTransform="translate(0 17) scale(1 -1)" gradientUnits="userSpaceOnUse">
      <stop offset="0" stop-color="#4f55a7"/>
      <stop offset=".3" stop-color="#5f55a6"/>
      <stop offset=".7" stop-color="#7154a5"/>
      <stop offset="1" stop-color="#7654a4"/>
    </linearGradient>
    <mask id="c" data-name="mask" x=".44" y="4.85" width="14.95" height="3.15" maskUnits="userSpaceOnUse"/>
  </defs>
  <g>
    <path class="l" d="M7.89,4.35c4.64,.14,4.63,7.16-.01,7.28-4.64-.14-4.63-7.16,.01-7.28Z"/>
    <path class="j" d="M1.12,6.27H14.65c.1,0,.17,.08,.17,.18v3.08c0,.1-.08,.18-.17,.18H1.12c-.1,0-.17-.08-.17-.18v-3.07c0-.1,.08-.19,.17-.19Z"/>
    <path class="q" d="M9.95,6.97c-.06-.16-.22-.26-.39-.26-.18,.03-1.26-.07-1.4,.07-.12,.08-.19,.21-.19,.36,.04,.23-.12,1.9,.12,2.04,.16,.24,1.23,.08,1.47,.12,.23,0,.43-.19,.42-.43-.02-.09,.04-1.88-.03-1.9Zm-.33,1.61c.03,.25-.22,.28-.34,.08,0,0-.6-.83-.6-.83v.7c.02,.33-.36,.33-.34,0,0,0,0-1.06,0-1.06-.02-.17,.11-.31,.26-.21,.03,0,.67,.89,.7,.94v-.72c-.02-.33,.36-.33,.34,0,0,0,0,1.1,0,1.1h-.02Z"/>
    <path class="k" d="M3.37,6.97c-.06-.16-.22-.26-.39-.26-.18,.03-1.26-.07-1.4,.07-.12,.08-.19,.21-.19,.36,.04,.23-.12,1.9,.12,2.04,.16,.24,1.23,.08,1.47,.12,.23,0,.43-.19,.42-.43-.02-.09,.04-1.88-.03-1.9Zm-.5,1.52c-.16,.36-.67,.38-.94,.16-.06-.12-.02-.25,.13-.24,.11,.02,.23,.07,.34,.06,.16,.02,.24-.2,.1-.28-.22-.11-.6-.15-.58-.49-.03-.63,1.11-.57,.86-.15-.14,.13-.5-.18-.53,.1,0,.23,.86,.12,.62,.83Z"/>
    <path class="e" d="M5.57,6.97c-.06-.16-.22-.26-.39-.26-.18,.03-1.26-.07-1.4,.07-.12,.08-.19,.21-.19,.36,.04,.23-.12,1.9,.12,2.04,.16,.24,1.23,.08,1.47,.12,.23,0,.43-.19,.42-.43-.01-.09,.03-1.88-.03-1.9Zm-.57,1.15c-.12,.15-.42,.14-.61,.14,0,.15,.04,.53-.17,.51-.11,0-.17-.08-.17-.25v-1.05c-.04-.33,.32-.24,.53-.25,.49-.05,.71,.59,.42,.9Z"/>
    <path class="o" d="M4.55,7.55h-.14v.4h.14c.31,.03,.31-.42,0-.4Z"/>
    <path class="h" d="M7.76,6.97c-.06-.16-.22-.26-.39-.26-.18,.03-1.26-.07-1.4,.07-.12,.08-.19,.21-.19,.36,.04,.23-.12,1.9,.12,2.04,.16,.24,1.23,.08,1.47,.12,.23,0,.43-.19,.42-.43-.01-.09,.03-1.87-.03-1.9Zm-.81,1.57c.02,.33-.36,.33-.34,0,0,0,0-1.07,0-1.07-.02-.33,.36-.33,.34,0,0,0,0,1.07,0,1.07Z"/>
    <path class="g" d="M12.15,6.97c-.06-.16-.22-.26-.39-.26-.18,.03-1.26-.07-1.4,.07-.12,.08-.19,.21-.19,.36,.04,.23-.12,1.9,.12,2.04,.16,.24,1.23,.08,1.47,.12,.23,0,.43-.19,.42-.43-.01-.09,.03-1.88-.03-1.9Zm-.82,1.57c.02,.33-.36,.33-.34,0,0,0,0-1.07,0-1.07,0-.17,.06-.25,.17-.25s.17,.08,.17,.25v1.07Z"/>
    <path class="f" d="M14.35,6.97c-.07-.17-.25-.27-.42-.27,0,0-1.12,0-1.12,0-.24,0-.45,.2-.44,.44,.04,.23-.12,1.9,.12,2.04,.17,.25,1.19,.09,1.44,.14,.24,0,.46-.19,.45-.44-.01-.09,.03-1.87-.03-1.9Zm-.37,1.77c-.21,.16-.32-.12-.35-.3h-.52l-.06,.19c-.04,.22-.32,.2-.31,0-.04,0,.38-1.14,.39-1.18,.05-.15,.14-.23,.26-.23s.2,.06,.25,.2l.37,1.1c.03,.08,.04,.16-.03,.22Z"/>
    <path class="n" d="M13.38,7.58l-.17,.53h.33l-.16-.53Z"/>
    <path class="e" d="M4.55,7.55h-.14v.4h.14c.3,.03,.32-.42,0-.4Z"/>
    <path class="f" d="M13.38,7.58l-.16,.53h.33l-.16-.53h-.01Z"/>
    <g class="i">
      <g class="p">
        <path class="d" d="M9.96,6.97c-.06-.16-.22-.26-.39-.26-.18,.03-1.26-.07-1.4,.07-.12,.08-.19,.21-.19,.36,.04,.23-.12,1.9,.12,2.04,.16,.24,1.24,.08,1.47,.12,.23,0,.43-.19,.42-.43-.01-.09,.03-1.88-.03-1.9Zm-.33,1.61c.03,.25-.22,.28-.34,.08,0,0-.6-.83-.6-.83-.04,.17,.12,.97-.17,.95-.11,0-.17-.08-.17-.25v-1.06c-.02-.17,.11-.31,.26-.21,.03,0,.67,.89,.7,.94v-.72c-.02-.33,.36-.33,.34,0,0,0,0,1.1,0,1.1h-.02Zm-6.25-1.61c-.06-.16-.22-.26-.39-.26-.18,.03-1.26-.07-1.4,.07-.12,.08-.19,.21-.19,.36,.04,.23-.12,1.9,.12,2.04,.08,.06,.19,.14,.3,.12,0,0,1.17,0,1.17,0,.23,0,.43-.19,.42-.43-.01-.09,.03-1.87-.03-1.9Zm-.5,1.52c-.16,.36-.67,.38-.94,.16-.06-.12-.02-.25,.13-.24,.11,.02,.23,.07,.34,.06,.16,.02,.24-.2,.1-.28-.22-.11-.6-.15-.58-.49-.03-.63,1.11-.57,.86-.15-.14,.13-.5-.18-.53,.1,0,.23,.86,.12,.62,.83Zm2.7-1.52c-.06-.16-.22-.26-.39-.26-.18,.03-1.26-.07-1.4,.07-.12,.08-.19,.21-.19,.36,.04,.23-.12,1.9,.12,2.04,.16,.24,1.23,.08,1.47,.12,.23,0,.43-.19,.42-.43-.01-.09,.03-1.87-.03-1.9Zm-.57,1.15c-.12,.15-.42,.14-.61,.14,0,.15,.04,.53-.17,.51-.11,0-.17-.08-.17-.25v-1.05c-.04-.33,.32-.24,.53-.25,.49-.04,.71,.58,.42,.9Zm2.75-1.15c-.06-.16-.22-.26-.39-.26-.18,.03-1.26-.07-1.4,.07-.12,.08-.19,.21-.19,.36,.04,.23-.12,1.9,.12,2.04,.16,.24,1.23,.08,1.47,.12,.23,0,.43-.19,.42-.43-.02-.09,.04-1.88-.03-1.9Zm-.81,1.57c.02,.33-.36,.33-.34,0,0,0,0-1.07,0-1.07-.02-.33,.36-.33,.34,0,0,0,0,1.07,0,1.07Zm5.22-1.57c-.06-.16-.22-.26-.39-.26-.18,.03-1.26-.07-1.4,.07-.12,.08-.19,.21-.19,.36,.04,.23-.12,1.9,.12,2.04,.16,.24,1.23,.08,1.47,.12,.23,0,.43-.19,.42-.43-.01-.09,.03-1.87-.03-1.9Zm-.83,1.57c.02,.33-.36,.33-.34,0,0,0,0-1.07,0-1.07-.02-.33,.36-.33,.34,0,0,0,0,1.07,0,1.07Zm3.02-1.57c-.07-.17-.25-.27-.42-.27,0,0-1.12,0-1.12,0-.24,0-.45,.2-.44,.44,.04,.23-.12,1.9,.12,2.04,.17,.25,1.19,.09,1.44,.14,.24,0,.46-.19,.45-.44-.02-.09,.04-1.88-.03-1.9Zm-.37,1.77c-.21,.16-.32-.12-.35-.3h-.51c-.04,.11-.08,.36-.22,.34-.15,0-.16-.15-.14-.26,0,0,.38-1.07,.38-1.07,.08-.28,.42-.31,.51-.03,.02,.05,.41,1.2,.4,1.22-.02,.04-.03,.07-.07,.1Z"/>
      </g>
    </g>
  </g>
  <rect class="m" width="16" height="16"/>
</svg>